# xmcd
#
# Track frame offsets: 
#        150
#        12368
#        28533
#        44885
#        63255
#        73080
#        86636
#        102460
#        121999
#        143319
#        155419
#        168449
#        178741
#        197998
#        209295
#        226507
#        242508
#        252139
#        271383
#        282871
#
# Disc length: 3943 seconds
#
# Revision: 3
# Processed by: cddbd v1.5.2PL0 Copyright (c) Steve Scherf et al.
# Submitted via: ExactAudioCopy v0.99pb5
#
DISCID=170f6514
DTITLE=Various Artist - Pop Masters - Volume 4 - CD 4
DYEAR=2008
DGENRE=Pop
TTITLE0=Seekers - I'll never find another you
TTITLE1=Alice - Per Elisa
TTITLE2=Cats - One way wind
TTITLE3=Kate Winslet - What if
TTITLE4=Craig Douglas - Pretty blue eyes
TTITLE5=Dr. Hook - Better love next time
TTITLE6=Julian Lennon - Too late for goodbyes
TTITLE7=Scaffold - Lily the pink
TTITLE8=Climie Fisher - Rise to the occasion
TTITLE9=Peter and Gordon - World without love
TTITLE10=Dr. Hook - A little bit more
TTITLE11=Marcels - Blue moon
TTITLE12=David Grant and Jaki Graham - Could it be I'm falling in love
TTITLE13=Timi Yuro - Hurt
TTITLE14=Johnny Clegg and Savuka - Scatterlings of Africa
TTITLE15=Tavares - Heaven must be missing an angel
TTITLE16=Freddie and The Dreamers - I'm telling you now
TTITLE17=Wendy Moten - Come in out of the rain
TTITLE18=Joe Jones - You talk too much
TTITLE19=Tommy James And The Shondells - Hanky Panky
EXTD=
EXTT0=
EXTT1=
EXTT2=
EXTT3=
EXTT4=
EXTT5=
EXTT6=
EXTT7=
EXTT8=
EXTT9=
EXTT10=
EXTT11=
EXTT12=
EXTT13=
EXTT14=
EXTT15=
EXTT16=
EXTT17=
EXTT18=
EXTT19=
PLAYORDER=
